<svg width="17" height="20" viewBox="0 0 17 20" fill="none" xmlns="http://www.w3.org/2000/svg">
<path d="M0.799805 4.95996H2.4798H15.9198" stroke="#4B5563" stroke-width="1.5" stroke-linecap="round" stroke-linejoin="round"/>
<path d="M4.99949 4.9601V3.2801C4.99949 2.83453 5.17649 2.40722 5.49155 2.09216C5.80661 1.7771 6.23393 1.6001 6.67949 1.6001H10.0395C10.4851 1.6001 10.9124 1.7771 11.2274 2.09216C11.5425 2.40722 11.7195 2.83453 11.7195 3.2801V4.9601M14.2395 4.9601V16.7201C14.2395 17.1657 14.0625 17.593 13.7474 17.908C13.4324 18.2231 13.0051 18.4001 12.5595 18.4001H4.15949C3.71393 18.4001 3.28661 18.2231 2.97155 17.908C2.65649 17.593 2.47949 17.1657 2.47949 16.7201V4.9601H14.2395Z" stroke="#4B5563" stroke-width="1.5" stroke-linecap="round" stroke-linejoin="round"/>
<path d="M6.67969 9.16016V14.2002" stroke="#4B5563" stroke-width="1.5" stroke-linecap="round" stroke-linejoin="round"/>
<path d="M10.04 9.16016V14.2002" stroke="#4B5563" stroke-width="1.5" stroke-linecap="round" stroke-linejoin="round"/>
</svg>
