<svg width="20" height="18" viewBox="0 0 20 18" fill="none" xmlns="http://www.w3.org/2000/svg">
<path d="M3.33317 5.66383C3.1965 5.6603 3.09725 5.65239 3.00802 5.63464C2.34687 5.50313 1.83004 4.9863 1.69853 4.32515C1.6665 4.16415 1.6665 3.97055 1.6665 3.58333C1.6665 3.19612 1.6665 3.00251 1.69853 2.84152C1.83004 2.18037 2.34687 1.66354 3.00802 1.53202C3.16902 1.5 3.36262 1.5 3.74984 1.5H16.2498C16.6371 1.5 16.8307 1.5 16.9917 1.53202C17.6528 1.66354 18.1696 2.18037 18.3011 2.84152C18.3332 3.00251 18.3332 3.19612 18.3332 3.58333C18.3332 3.97055 18.3332 4.16415 18.3011 4.32515C18.1696 4.9863 17.6528 5.50313 16.9917 5.63464C16.9024 5.65239 16.8032 5.6603 16.6665 5.66383M8.33317 9.83333H11.6665M3.33317 5.66667H16.6665V12.5C16.6665 13.9001 16.6665 14.6002 16.394 15.135C16.1543 15.6054 15.7719 15.9878 15.3015 16.2275C14.7667 16.5 14.0666 16.5 12.6665 16.5H7.33317C5.93304 16.5 5.23297 16.5 4.69819 16.2275C4.22779 15.9878 3.84534 15.6054 3.60565 15.135C3.33317 14.6002 3.33317 13.9001 3.33317 12.5V5.66667Z" stroke="#4B5563" stroke-width="1.6" stroke-linecap="round" stroke-linejoin="round"/>
</svg>
