<svg width="16" height="16" viewBox="0 0 16 16" fill="none" xmlns="http://www.w3.org/2000/svg">
<path d="M1.33398 5.13468C1.33398 4.13991 2.1404 3.3335 3.13517 3.3335C3.65203 3.3335 4.1109 3.00276 4.27434 2.51243L4.33398 2.3335C4.36211 2.24911 4.37617 2.20692 4.39122 2.1695C4.58335 1.69158 5.03358 1.36707 5.54773 1.33593C5.58799 1.3335 5.63246 1.3335 5.72141 1.3335H10.2799C10.3688 1.3335 10.4133 1.3335 10.4536 1.33593C10.9677 1.36707 11.418 1.69158 11.6101 2.1695C11.6251 2.20692 11.6392 2.24911 11.6673 2.3335L11.727 2.51243C11.8904 3.00276 12.3493 3.3335 12.8661 3.3335C13.8609 3.3335 14.6673 4.13991 14.6673 5.13468V10.8002C14.6673 11.9203 14.6673 12.4803 14.4493 12.9081C14.2576 13.2845 13.9516 13.5904 13.5753 13.7822C13.1475 14.0002 12.5874 14.0002 11.4673 14.0002H4.53398C3.41388 14.0002 2.85383 14.0002 2.426 13.7822C2.04968 13.5904 1.74372 13.2845 1.55197 12.9081C1.33398 12.4803 1.33398 11.9203 1.33398 10.8002V5.13468Z" stroke="#4B5563" stroke-width="1.6" stroke-linecap="round" stroke-linejoin="round"/>
<path d="M8.00065 11.0002C9.65751 11.0002 11.0007 9.65702 11.0007 8.00016C11.0007 6.34331 9.65751 5.00016 8.00065 5.00016C6.3438 5.00016 5.00065 6.34331 5.00065 8.00016C5.00065 9.65702 6.3438 11.0002 8.00065 11.0002Z" stroke="#4B5563" stroke-width="1.6" stroke-linecap="round" stroke-linejoin="round"/>
</svg>
