<svg width="24" height="24" viewBox="0 0 24 24" fill="none" xmlns="http://www.w3.org/2000/svg">
<path d="M18.25 14.0001V10.7501H15V9.2501H18.25V6.0001H19.75V9.2501H23V10.7501H19.75V14.0001H18.25ZM9 11.9751C7.9 11.9751 7 11.6251 6.3 10.9251C5.6 10.2251 5.25 9.3251 5.25 8.2251C5.25 7.1251 5.6 6.2251 6.3 5.5251C7 4.8251 7.9 4.4751 9 4.4751C10.1 4.4751 11 4.8251 11.7 5.5251C12.4 6.2251 12.75 7.1251 12.75 8.2251C12.75 9.3251 12.4 10.2251 11.7 10.9251C11 11.6251 10.1 11.9751 9 11.9751ZM1 20.0001V17.6501C1 17.0668 1.14583 16.5376 1.4375 16.0626C1.72917 15.5876 2.15 15.2334 2.7 15.0001C3.95 14.4501 5.06115 14.0626 6.03345 13.8376C7.00577 13.6126 7.99327 13.5001 8.99595 13.5001C9.99865 13.5001 10.9833 13.6126 11.95 13.8376C12.9167 14.0626 14.025 14.4501 15.275 15.0001C15.825 15.2501 16.25 15.6084 16.55 16.0751C16.85 16.5418 17 17.0668 17 17.6501V20.0001H1ZM2.5 18.5001H15.5V17.6501C15.5 17.3834 15.425 17.1293 15.275 16.8876C15.125 16.6459 14.925 16.4668 14.675 16.3501C13.4917 15.8001 12.4917 15.4376 11.675 15.2626C10.8583 15.0876 9.96667 15.0001 9 15.0001C8.03333 15.0001 7.1375 15.0876 6.3125 15.2626C5.4875 15.4376 4.48333 15.8001 3.3 16.3501C3.05 16.4668 2.85417 16.6459 2.7125 16.8876C2.57083 17.1293 2.5 17.3834 2.5 17.6501V18.5001ZM9 10.4751C9.65 10.4751 10.1875 10.2626 10.6125 9.8376C11.0375 9.4126 11.25 8.8751 11.25 8.2251C11.25 7.5751 11.0375 7.0376 10.6125 6.6126C10.1875 6.1876 9.65 5.9751 9 5.9751C8.35 5.9751 7.8125 6.1876 7.3875 6.6126C6.9625 7.0376 6.75 7.5751 6.75 8.2251C6.75 8.8751 6.9625 9.4126 7.3875 9.8376C7.8125 10.2626 8.35 10.4751 9 10.4751Z" fill="#3D4043"/>
</svg>
