<svg width="24" height="24" viewBox="0 0 24 24" fill="none" xmlns="http://www.w3.org/2000/svg">
<path d="M22.56 3.83984H1.44C0.646078 3.83984 0 4.48592 0 5.27984V18.7198C0 19.5138 0.646078 20.1598 1.44 20.1598H22.56C23.3539 20.1598 24 19.5138 24 18.7198V5.27984C24 4.48592 23.3539 3.83984 22.56 3.83984ZM23.04 18.7198C23.04 18.9838 22.824 19.1998 22.56 19.1998H1.44C1.17506 19.1998 0.96 18.9838 0.96 18.7198V5.27984C0.96 5.01486 1.17506 4.79984 1.44 4.79984H22.56C22.824 4.79984 23.04 5.01486 23.04 5.27984V18.7198Z" fill="#101010"/>
<path d="M23.5205 8.16016H0.480469V10.0802H23.5205V8.16016Z" fill="#101010"/>
<path d="M23.52 7.67969H0.48C0.215062 7.67969 0 7.8947 0 8.15969V10.0797C0 10.3447 0.215062 10.5597 0.48 10.5597H23.52C23.7849 10.5597 24 10.3447 24 10.0797V8.15969C24 7.8947 23.7849 7.67969 23.52 7.67969ZM23.04 9.59969H0.96V8.63969H23.04V9.59969Z" fill="#101010"/>
<path d="M12.9598 13.4404H4.31984C4.05491 13.4404 3.83984 13.6555 3.83984 13.9204C3.83984 14.1854 4.05491 14.4004 4.31984 14.4004H12.9598C13.2248 14.4004 13.4398 14.1854 13.4398 13.9204C13.4398 13.6554 13.2248 13.4404 12.9598 13.4404Z" fill="#101010"/>
<path d="M9.11984 15.3604H4.31984C4.05491 15.3604 3.83984 15.5754 3.83984 15.8404C3.83984 16.1053 4.05491 16.3204 4.31984 16.3204H9.11984C9.38478 16.3204 9.59984 16.1053 9.59984 15.8404C9.59984 15.5754 9.38478 15.3604 9.11984 15.3604Z" fill="#101010"/>
</svg>
