<svg width="28" height="28" viewBox="0 0 28 28" fill="none" xmlns="http://www.w3.org/2000/svg">
<path d="M7.35547 10.5938H16.8342V12.1296H7.35547V10.5938Z" fill="#656E79"/>
<path d="M7.35547 14.3145H16.8342V15.8501H7.35547V14.3145Z" fill="#656E79"/>
<path d="M27.1094 7.22003C27.1094 4.48849 24.8872 2.26611 22.1556 2.26611C20.1495 2.26611 18.4179 3.4647 17.6399 5.18335H3.92033C2.2326 5.18335 0.859375 6.55673 0.859375 8.2443V18.0728C0.859375 19.7607 2.2326 21.1341 3.92033 21.1341H4.74865V25.5305L11.3153 21.1341H19.8647C21.5527 21.1341 22.9259 19.7607 22.9259 18.0728V12.1139C25.2927 11.7426 27.1094 9.68946 27.1094 7.22003ZM19.8647 19.5981H10.8488L6.28433 22.6539V19.5981H3.92033C3.07935 19.5981 2.39506 18.914 2.39506 18.0728V8.2443C2.39506 7.40348 3.07935 6.71935 3.92033 6.71935H17.227C17.2104 6.8839 17.2017 7.051 17.2017 7.22003C17.2017 9.69106 19.0206 11.7455 21.3899 12.1147V18.0728C21.3899 18.914 20.7057 19.5981 19.8647 19.5981ZM22.1556 10.6379C20.271 10.6379 18.7377 9.10467 18.7377 7.22003C18.7377 5.33524 20.271 3.8018 22.1556 3.8018C24.0403 3.8018 25.5737 5.33524 25.5737 7.22003C25.5737 9.10467 24.0403 10.6379 22.1556 10.6379Z" fill="#656E79"/>
<path d="M21.3906 5.40234H22.9265V9.03703H21.3906V5.40234Z" fill="#656E79"/>
</svg>
