<svg width="28" height="28" viewBox="0 0 28 28" fill="none" xmlns="http://www.w3.org/2000/svg">
<path d="M7.35638 10.5938H16.8352V12.1296H7.35638V10.5938Z" fill="#656E79"/>
<path d="M7.35638 14.3145H16.8352V15.8501H7.35638V14.3145Z" fill="#656E79"/>
<path d="M27.1113 7.22003C27.1113 4.48849 24.8891 2.26611 22.1576 2.26611C20.1515 2.26611 18.4199 3.4647 17.6418 5.18335H3.92228C2.23455 5.18335 0.861328 6.55673 0.861328 8.2443V18.0728C0.861328 19.7607 2.23455 21.1341 3.92228 21.1341H4.7506V25.5305L11.3173 21.1341H19.8666C21.5547 21.1341 22.9279 19.7607 22.9279 18.0728V12.1139C25.2946 11.7426 27.1113 9.68946 27.1113 7.22003ZM19.8666 19.5981H10.8507L6.28629 22.6539V19.5981H3.92228C3.0813 19.5981 2.39701 18.914 2.39701 18.0728V8.2443C2.39701 7.40348 3.0813 6.71935 3.92228 6.71935H17.229C17.2123 6.8839 17.2037 7.051 17.2037 7.22003C17.2037 9.69106 19.0226 11.7455 21.3919 12.1147V18.0728C21.3919 18.914 20.7076 19.5981 19.8666 19.5981ZM22.1576 10.6379C20.2729 10.6379 18.7397 9.10467 18.7397 7.22003C18.7397 5.33524 20.2729 3.8018 22.1576 3.8018C24.0422 3.8018 25.5756 5.33524 25.5756 7.22003C25.5756 9.10467 24.0422 10.6379 22.1576 10.6379Z" fill="#656E79"/>
<path d="M21.3896 5.40234H22.9255V9.03703H21.3896V5.40234Z" fill="#656E79"/>
</svg>
