<svg width="20" height="20" viewBox="0 0 20 20" fill="none" xmlns="http://www.w3.org/2000/svg">
<path d="M4.78355 10.0182C4.78355 10.2882 4.80091 10.5452 4.83564 10.7895C4.87036 11.0338 4.9146 11.27 4.96835 11.4983C5.02571 11.7199 5.01921 11.9415 4.94887 12.1632C4.87852 12.3848 4.7434 12.5499 4.54351 12.6586C4.34364 12.7673 4.13636 12.783 3.92168 12.7057C3.707 12.6285 3.56403 12.4899 3.49278 12.29C3.36596 11.9192 3.27432 11.548 3.21787 11.1763C3.16141 10.8046 3.13318 10.4186 3.13318 10.0182C3.13318 8.1674 3.80316 6.56413 5.14314 5.20845C6.48312 3.85277 8.07461 3.17493 9.91759 3.17493H10.8134L9.71924 2.08074C9.59242 1.95392 9.52901 1.80628 9.52901 1.63781C9.52901 1.46932 9.59635 1.32167 9.73101 1.19487C9.85783 1.06805 10.0089 1.00464 10.1844 1.00464C10.3598 1.00464 10.5109 1.06805 10.6377 1.19487L12.8732 3.40953C13.0375 3.57378 13.1196 3.77065 13.1196 4.00012C13.1196 4.22959 13.0375 4.42645 12.8732 4.5907L10.6586 6.80537C10.5317 6.93219 10.3772 6.9956 10.1948 6.9956C10.0124 6.9956 9.85783 6.93219 9.73101 6.80537C9.59635 6.67856 9.53098 6.52201 9.53491 6.33572C9.53884 6.14943 9.60421 5.99288 9.73101 5.86606L10.7718 4.82531H9.94116C8.53355 4.82531 7.32205 5.33693 6.30666 6.36018C5.29125 7.38343 4.78355 8.60279 4.78355 10.0182ZM15.2165 10.0327C15.2165 9.77065 15.2011 9.51552 15.1703 9.26733C15.1395 9.01915 15.0933 8.7779 15.0317 8.5436C14.9683 8.32197 14.9698 8.10035 15.0363 7.87874C15.1027 7.65712 15.2358 7.49196 15.4357 7.38326C15.6277 7.27457 15.8276 7.2569 16.0354 7.33026C16.2431 7.40364 16.3865 7.53634 16.4656 7.72837C16.6063 8.10699 16.7084 8.48758 16.7718 8.87014C16.8352 9.25268 16.8669 9.64021 16.8669 10.0327C16.8669 11.8914 16.1969 13.5006 14.8569 14.8602C13.5169 16.2198 11.9294 16.8996 10.0942 16.8996H9.14497L10.2274 17.982C10.3621 18.1088 10.4274 18.2565 10.4235 18.4249C10.4196 18.5934 10.3542 18.7411 10.2274 18.8679C10.0927 18.9947 9.93964 19.0581 9.76814 19.0581C9.59664 19.0581 9.44748 18.9947 9.32068 18.8679L7.08518 16.6532C6.92091 16.4889 6.83878 16.294 6.83878 16.0685C6.83878 15.8429 6.92091 15.648 7.08518 15.4838L9.33245 13.2483C9.45141 13.1215 9.5986 13.0561 9.77403 13.0522C9.94945 13.0483 10.1045 13.1097 10.2392 13.2365C10.366 13.3712 10.4294 13.5242 10.4294 13.6957C10.4294 13.8672 10.366 14.0164 10.2392 14.1432L9.14497 15.2374H10.0589C11.4665 15.2374 12.678 14.7258 13.6934 13.7025C14.7088 12.6793 15.2165 11.456 15.2165 10.0327V10.0327Z" fill="#3671E6"/>
</svg>
