<svg width="20" height="20" viewBox="0 0 20 20" fill="none" xmlns="http://www.w3.org/2000/svg">
<g clip-path="url(#clip0_3665_11747)">
<path d="M4.43008 16.1987C4.93702 15.0043 6.12061 14.1667 7.49984 14.1667H12.4998C13.8791 14.1667 15.0626 15.0043 15.5696 16.1987M13.3332 7.91666C13.3332 9.75761 11.8408 11.25 9.99984 11.25C8.15889 11.25 6.6665 9.75761 6.6665 7.91666C6.6665 6.07571 8.15889 4.58332 9.99984 4.58332C11.8408 4.58332 13.3332 6.07571 13.3332 7.91666ZM18.3332 9.99999C18.3332 14.6024 14.6022 18.3333 9.99984 18.3333C5.39746 18.3333 1.6665 14.6024 1.6665 9.99999C1.6665 5.39762 5.39746 1.66666 9.99984 1.66666C14.6022 1.66666 18.3332 5.39762 18.3332 9.99999Z" stroke="#656E79" stroke-width="1.5" stroke-linecap="round" stroke-linejoin="round"/>
</g>
<defs>
<clipPath id="clip0_3665_11747">
<rect width="20" height="20" fill="white"/>
</clipPath>
</defs>
</svg>
