<svg width="34" height="24" viewBox="0 0 34 24" fill="none" xmlns="http://www.w3.org/2000/svg">
<g clip-path="url(#clip0_2774_12006)">
<rect x="1" y="23" width="22" height="32" rx="4" transform="rotate(-90 1 23)" fill="url(#paint0_linear_2774_12006)"/>
<path fill-rule="evenodd" clip-rule="evenodd" d="M22.2195 0.541173L17.1325 5.0297L12.0454 0.522331L11.6293 0.889889L16.8383 5.50569L16.8383 7.99865L12.1315 7.98993L11.5432 7.98884L-1.40039 7.96487L-1.40039 8.48511L11.5432 8.50908L11.5432 15.7924L-1.40039 15.7684L-1.40039 16.2886L11.5432 16.3126L12.1315 16.3137L16.8383 16.3224L16.8383 18.8159L11.6293 23.4121L12.0454 23.7808L17.1325 19.292L22.2195 23.7996L22.6356 23.4325L17.4266 18.817L17.4266 16.3235L22.1334 16.3322L22.7217 16.3333L35.6653 16.3573L35.6653 15.837L22.7217 15.8131L22.7217 8.52978L35.6653 8.55375L35.6653 8.03352L22.4276 8.009C22.2651 8.0087 22.1334 8.12489 22.1334 8.26857L22.1334 15.812L17.1325 15.8027L12.1315 15.7934L12.1315 8.51017L17.1325 8.51943C17.295 8.51973 17.4266 8.40355 17.4266 8.25986L17.4266 5.50677L22.6356 0.910272L22.2195 0.541173Z" fill="#47453F"/>
</g>
<rect x="1" y="23" width="22" height="32" rx="4" transform="rotate(-90 1 23)" stroke="black" stroke-width="0.5"/>
<defs>
<linearGradient id="paint0_linear_2774_12006" x1="1.17742" y1="23" x2="39.3567" y2="54.5046" gradientUnits="userSpaceOnUse">
<stop stop-color="#C4C4C4"/>
<stop offset="1" stop-color="#EBEBEB"/>
</linearGradient>
<clipPath id="clip0_2774_12006">
<rect x="1" y="23" width="22" height="32" rx="4" transform="rotate(-90 1 23)" fill="white"/>
</clipPath>
</defs>
</svg>
