<svg width="28" height="28" viewBox="0 0 28 28" fill="none" xmlns="http://www.w3.org/2000/svg">
<path fill-rule="evenodd" clip-rule="evenodd" d="M13.4419 23.2238H3.89769C3.83852 23.2238 3.78159 23.1992 3.74029 23.1579C3.69787 23.1155 3.67443 23.0597 3.67443 23.0005V21.3808C3.67443 20.4543 4.33639 19.6371 5.35667 18.9428C7.17845 17.6993 10.1266 16.9156 13.4419 16.9156C13.9041 16.9156 14.2792 16.5406 14.2792 16.0784C14.2792 15.6174 13.9041 15.2412 13.4419 15.2412C9.73363 15.2412 6.45063 16.1688 4.4123 17.5586C2.85731 18.6191 2 19.9665 2 21.3808V23.0005C2 23.5028 2.19982 23.9862 2.55591 24.3423C2.91201 24.6973 3.39424 24.8982 3.89769 24.8982H13.4419C13.9041 24.8971 14.2792 24.522 14.2792 24.0599C14.2792 23.5988 13.9041 23.2227 13.4419 23.2238Z" fill="#101010"/>
<path fill-rule="evenodd" clip-rule="evenodd" d="M13.4404 2C10.0513 2 7.30078 4.75053 7.30078 8.13958C7.30078 11.5286 10.0513 14.2792 13.4404 14.2792C16.8294 14.2792 19.5799 11.5286 19.5799 8.13958C19.5799 4.75053 16.8294 2 13.4404 2ZM13.4404 3.67443C15.9051 3.67443 17.9055 5.67482 17.9055 8.13958C17.9055 10.6043 15.9051 12.6047 13.4404 12.6047C10.9756 12.6047 8.97521 10.6043 8.97521 8.13958C8.97521 5.67482 10.9756 3.67443 13.4404 3.67443Z" fill="#101010"/>
<path fill-rule="evenodd" clip-rule="evenodd" d="M20.1403 16.1631C17.9457 16.1631 16.1641 17.9447 16.1641 20.1393C16.1641 22.3339 17.9457 24.1166 20.1403 24.1166C22.3349 24.1166 24.1176 22.3339 24.1176 20.1393C24.1176 17.9447 22.3349 16.1631 20.1403 16.1631ZM20.1403 17.8375C21.4106 17.8375 22.4432 18.869 22.4432 20.1393C22.4432 21.4096 21.4106 22.4422 20.1403 22.4422C18.8699 22.4422 17.8374 21.4096 17.8374 20.1393C17.8374 18.869 18.8699 17.8375 20.1403 17.8375Z" fill="#101010"/>
<path fill-rule="evenodd" clip-rule="evenodd" d="M20.9772 16.9997V15.1165C20.9772 14.6544 20.6021 14.2793 20.1399 14.2793C19.6778 14.2793 19.3027 14.6544 19.3027 15.1165V17.0008C19.3027 17.4618 19.6778 17.838 20.1399 17.838C20.6021 17.8369 20.9772 17.4618 20.9772 16.9997Z" fill="#101010"/>
<path fill-rule="evenodd" clip-rule="evenodd" d="M22.9523 18.5124L24.284 17.1795C24.6111 16.8536 24.6111 16.3222 24.284 15.9963C23.9581 15.6692 23.4267 15.6692 23.1008 15.9963L21.7679 17.328C21.4419 17.6551 21.4419 18.1853 21.7679 18.5124C22.095 18.8383 22.6252 18.8383 22.9523 18.5124Z" fill="#101010"/>
<path fill-rule="evenodd" clip-rule="evenodd" d="M23.2795 20.9772H25.1638C25.6259 20.9772 26.001 20.6021 26.001 20.1399C26.001 19.6778 25.6259 19.3027 25.1638 19.3027H23.2795C22.8184 19.3027 22.4434 19.6778 22.4434 20.1399C22.4422 20.6021 22.8184 20.9772 23.2795 20.9772Z" fill="#101010"/>
<path fill-rule="evenodd" clip-rule="evenodd" d="M21.7679 22.9513L23.1008 24.283C23.4267 24.6101 23.9581 24.6101 24.284 24.283C24.6111 23.9571 24.6111 23.4257 24.284 23.0998L22.9523 21.7669C22.6252 21.441 22.095 21.441 21.7679 21.7669C21.4419 22.094 21.4419 22.6242 21.7679 22.9513Z" fill="#101010"/>
<path fill-rule="evenodd" clip-rule="evenodd" d="M19.3027 23.2786V25.1629C19.3027 25.6251 19.6778 26.0001 20.1399 26.0001C20.6021 26.0001 20.9772 25.6251 20.9772 25.1629V23.2786C20.9772 22.8176 20.6021 22.4425 20.1399 22.4414C19.6778 22.4414 19.3027 22.8176 19.3027 23.2786Z" fill="#101010"/>
<path fill-rule="evenodd" clip-rule="evenodd" d="M17.327 21.7669L15.9953 23.0998C15.6682 23.4257 15.6682 23.9571 15.9953 24.283C16.3213 24.6101 16.8526 24.6101 17.1786 24.283L18.5114 22.9513C18.8374 22.6242 18.8374 22.094 18.5114 21.7669C18.1843 21.441 17.6541 21.441 17.327 21.7669Z" fill="#101010"/>
<path fill-rule="evenodd" clip-rule="evenodd" d="M16.9997 19.3027H15.1165C14.6544 19.3027 14.2793 19.6778 14.2793 20.1399C14.2793 20.6021 14.6544 20.9772 15.1165 20.9772H16.9997C17.4618 20.9772 17.838 20.6021 17.8369 20.1399C17.8369 19.6778 17.4618 19.3027 16.9997 19.3027Z" fill="#101010"/>
<path fill-rule="evenodd" clip-rule="evenodd" d="M18.5114 17.328L17.1786 15.9963C16.8526 15.6692 16.3213 15.6692 15.9953 15.9963C15.6682 16.3222 15.6682 16.8536 15.9953 17.1795L17.327 18.5124C17.6541 18.8383 18.1843 18.8383 18.5114 18.5124C18.8374 18.1853 18.8374 17.6551 18.5114 17.328Z" fill="#101010"/>
</svg>
