<svg width="24" height="25" viewBox="0 0 24 25" fill="none" xmlns="http://www.w3.org/2000/svg">
<g clip-path="url(#clip0_0_26617)">
<path d="M4.5 4.34961L19.5 20.8496" stroke="#A6B0C7" stroke-width="1.6" stroke-linecap="round" stroke-linejoin="round"/>
<path d="M14.5229 15.3742C13.787 16.0433 12.8153 16.3926 11.8218 16.3453C10.8283 16.298 9.89421 15.858 9.22512 15.122C8.55603 14.3861 8.20671 13.4144 8.254 12.4209C8.3013 11.4274 8.74133 10.4933 9.47731 9.82422" stroke="#A6B0C7" stroke-width="1.6" stroke-linecap="round" stroke-linejoin="round"/>
<path d="M12.7061 8.91602C13.5033 9.06869 14.2295 9.47593 14.7755 10.0766C15.3216 10.6772 15.658 11.4388 15.7342 12.247" stroke="#A6B0C7" stroke-width="1.6" stroke-linecap="round" stroke-linejoin="round"/>
<path d="M19.5572 16.4527C21.601 14.6227 22.5 12.5996 22.5 12.5996C22.5 12.5996 19.5 5.84962 12 5.84962C11.3505 5.84873 10.7021 5.90141 10.0613 6.00712" stroke="#A6B0C7" stroke-width="1.6" stroke-linecap="round" stroke-linejoin="round"/>
<path d="M6.9375 7.03125C3.11531 8.96625 1.5 12.6 1.5 12.6C1.5 12.6 4.5 19.35 12 19.35C13.7574 19.3638 15.4927 18.9589 17.0625 18.1687" stroke="#A6B0C7" stroke-width="1.6" stroke-linecap="round" stroke-linejoin="round"/>
</g>
<defs>
<clipPath id="clip0_0_26617">
<rect width="24" height="24" fill="white" transform="translate(0 0.599609)"/>
</clipPath>
</defs>
</svg>
