<svg width="28" height="28" viewBox="0 0 28 28" fill="none" xmlns="http://www.w3.org/2000/svg">
<path d="M21.9004 18.8145C23.7504 19.4951 24.9985 21.2626 24.9985 23.2575V26.5659" stroke="#101010" stroke-width="1.6" stroke-miterlimit="10" stroke-linecap="round" stroke-linejoin="round"/>
<path d="M16.7441 17.3105L18.799 17.9046" stroke="#101010" stroke-width="1.6" stroke-miterlimit="10" stroke-linecap="round" stroke-linejoin="round"/>
<path d="M9.19922 17.8979L11.2881 17.2969" stroke="#101010" stroke-width="1.6" stroke-miterlimit="10" stroke-linecap="round" stroke-linejoin="round"/>
<path d="M2.99805 26.5663V23.2475C2.99805 21.2686 4.22603 19.5138 6.05099 18.8213" stroke="#101010" stroke-width="1.6" stroke-miterlimit="10" stroke-linecap="round" stroke-linejoin="round"/>
<path d="M16.749 15.7676V17.2973L16.7333 17.3159C15.3077 19.0043 12.703 18.9954 11.2891 17.2973V15.7676" stroke="#101010" stroke-width="1.6" stroke-miterlimit="10" stroke-linecap="round" stroke-linejoin="round"/>
<path d="M21.9211 18.8343C21.8096 18.7927 21.6963 18.7547 21.5806 18.7212L18.7996 17.9172V23.7993H9.19961L9.19968 17.8975L6.42437 18.6959C6.30669 18.7298 6.19142 18.7684 6.07812 18.8106" stroke="#101010" stroke-width="1.6" stroke-miterlimit="10" stroke-linecap="round" stroke-linejoin="round"/>
<path d="M19.5356 9.5791V11.933C19.5356 14.051 17.8187 15.768 15.7006 15.768H12.2959C10.1779 15.768 8.46094 14.051 8.46094 11.933V9.5791" stroke="#101010" stroke-width="1.6" stroke-miterlimit="10" stroke-linecap="round" stroke-linejoin="round"/>
<path d="M15.5527 2.42383H15.701C17.819 2.42383 19.536 4.14081 19.536 6.25882V6.47123" stroke="#101010" stroke-width="1.6" stroke-miterlimit="10" stroke-linecap="round" stroke-linejoin="round"/>
<path d="M8.46094 6.47123V6.25882C8.46094 4.14081 10.1779 2.42383 12.2959 2.42383H12.4442" stroke="#101010" stroke-width="1.6" stroke-miterlimit="10" stroke-linecap="round" stroke-linejoin="round"/>
<path d="M12.4453 6.47066V1.43359H15.5535V6.47066" stroke="#101010" stroke-width="1.6" stroke-miterlimit="10" stroke-linecap="round" stroke-linejoin="round"/>
<path d="M20.5905 6.4707H7.4082V9.57891H20.5905V6.4707Z" stroke="#101010" stroke-width="1.6" stroke-miterlimit="10" stroke-linecap="round" stroke-linejoin="round"/>
</svg>
