<svg width="349" height="168" viewBox="0 0 349 168" fill="none" xmlns="http://www.w3.org/2000/svg">
<path d="M56.9417 87.7627C57.9441 88.0711 58.7152 88.688 59.255 89.6133C59.8719 90.5387 60.0261 91.5411 59.7176 92.6207C59.1779 94.7027 58.4453 96.8618 57.52 99.098C56.6718 101.334 55.6693 103.532 54.5127 105.691C53.4331 107.85 52.2379 109.932 50.927 111.937C49.6932 113.865 48.3823 115.523 46.9943 116.911C44.9894 118.916 42.8689 120.689 40.6327 122.231C38.3964 123.851 36.1988 125.316 34.0397 126.627C33.4999 127.012 33.0372 127.398 32.6517 127.783C32.3432 128.169 32.0348 128.67 31.7263 129.287C31.495 129.981 31.2637 130.868 31.0323 131.947C30.801 133.104 30.5697 134.646 30.3383 136.574C30.107 138.579 29.6829 140.815 29.066 143.283C28.4491 145.827 27.5623 148.218 26.4057 150.454C25.249 152.69 23.7839 154.579 22.0103 156.122C20.2368 157.664 18.0777 158.435 15.533 158.435C12.5257 158.435 10.1738 157.201 8.47733 154.734C7.86044 153.654 7.35922 152.15 6.97367 150.223C6.66522 148.372 6.93511 145.904 7.78333 142.82C8.47733 140.43 9.36411 138.27 10.4437 136.343C11.6003 134.415 12.8727 132.68 14.2607 131.138C15.7258 129.595 17.3066 128.207 19.003 126.974C20.6994 125.74 22.3959 124.545 24.0923 123.388C24.3237 121.614 24.0923 120.728 23.3983 120.728C23.2441 120.728 22.8585 120.882 22.2417 121.19C20.0054 122.733 17.5379 123.504 14.839 123.504C12.063 123.504 9.82678 123.002 8.13033 122C6.43389 121.075 5.123 120.111 4.19767 119.108C3.11811 117.875 2.30844 116.525 1.76867 115.06C1.15178 113.518 0.727667 111.937 0.496334 110.318C0.265001 108.698 0.187889 107.118 0.265001 105.575C0.265001 104.033 0.342112 102.568 0.496334 101.18C0.727667 99.1751 1.07467 96.7076 1.53733 93.7773C2 90.77 2.50122 87.6856 3.041 84.524C3.58078 81.3625 4.12055 78.2395 4.66033 75.155C5.27722 72.0706 5.817 69.4102 6.27967 67.174C6.58811 65.9402 7.16644 65.1306 8.01466 64.745C8.86289 64.2823 9.86533 64.051 11.022 64.051C12.1016 64.2823 12.9112 64.8607 13.451 65.786C14.0679 66.7113 14.2607 67.7138 14.0293 68.7934C13.5667 70.9525 13.0269 73.5357 12.41 76.543C11.8702 79.5503 11.3304 82.6348 10.7907 85.7963C10.328 88.9579 9.86533 92.0038 9.40266 94.934C8.94 97.7871 8.593 100.178 8.36166 102.105C7.97611 104.804 7.93755 107.195 8.246 109.277C8.63155 111.282 9.287 112.785 10.2123 113.788C11.2148 115.021 12.757 115.638 14.839 115.638C16.6897 115.638 18.3861 114.752 19.9283 112.978C21.5477 111.127 22.9742 108.968 24.208 106.501C25.5189 104.033 26.5984 101.566 27.4467 99.098C28.372 96.5533 29.0274 94.587 29.413 93.199C29.9528 90.5772 30.454 88.1868 30.9167 86.0277C31.4564 83.8686 31.9191 81.8637 32.3047 80.013C32.9215 77.3141 33.4228 74.9622 33.8083 72.9573C34.271 70.9525 34.5794 69.1789 34.7337 67.6367C35.1963 65.2462 36.7 64.051 39.2447 64.051C40.3242 64.2052 41.211 64.7065 41.905 65.5547C42.599 66.4029 42.8689 67.3668 42.7147 68.4463C42.7147 68.6006 42.599 69.4488 42.3677 70.991C42.1363 72.5332 41.7893 74.5381 41.3267 77.0057C40.864 79.4732 40.2857 82.2878 39.5917 85.4493C38.8977 88.5338 38.0494 91.7339 37.047 95.0497C36.5843 97.4401 36.0831 100.023 35.5433 102.799C35.0035 105.575 34.4638 108.583 33.924 111.821C33.6155 112.978 33.6541 113.865 34.0397 114.482C34.4252 115.021 34.965 115.291 35.659 115.291C36.353 115.291 37.0855 115.021 37.8567 114.482C39.2447 113.325 40.6327 111.898 42.0207 110.202C43.4087 108.506 44.7195 106.616 45.9533 104.534C47.2642 102.375 48.4209 100.1 49.4233 97.71C50.5029 95.3196 51.3897 92.8906 52.0837 90.423C52.6234 88.4952 53.8572 87.5313 55.785 87.5313C55.9392 87.5313 56.3248 87.6085 56.9417 87.7627ZM22.473 135.533C22.473 135.225 22.5501 134.762 22.7043 134.145C20.9308 135.533 19.4271 137.075 18.1933 138.772C16.9596 140.468 16.0342 142.512 15.4173 144.902C14.9547 146.753 14.7619 148.102 14.839 148.95C14.9932 149.876 15.1474 150.415 15.3017 150.57C15.9186 150.57 16.4969 150.377 17.0367 149.991C17.3451 149.76 17.7307 149.374 18.1933 148.835C18.656 148.295 19.1572 147.447 19.697 146.29C20.2368 145.21 20.738 143.784 21.2007 142.01C21.7404 140.314 22.1645 138.155 22.473 135.533ZM112.547 87.7627C113.626 88.0711 114.436 88.7266 114.976 89.729C115.515 90.6543 115.592 91.6568 115.207 92.7363C114.436 95.5123 113.395 98.6353 112.084 102.105C110.773 105.575 109.154 108.814 107.226 111.821C105.298 114.829 102.985 117.373 100.286 119.455C97.6641 121.537 94.5797 122.578 91.0326 122.578H90.1072C86.5601 122.347 83.707 120.843 81.5479 118.067C80.931 116.988 80.1599 116.448 79.2346 116.448C78.4635 116.448 77.6152 116.756 76.6899 117.373C75.8417 117.913 74.8393 118.53 73.6826 119.224C72.5259 119.841 71.215 120.458 69.7499 121.075C68.3619 121.614 66.7811 121.884 65.0076 121.884C62.9256 121.884 61.0364 121.614 59.3399 121.075C57.6435 120.458 56.1013 119.34 54.7133 117.72C52.477 115.099 51.089 111.474 50.5493 106.848C50.0095 102.144 50.3565 96.7076 51.5903 90.5387C52.2071 87.6085 53.0554 84.6011 54.1349 81.5167C55.2145 78.3551 56.641 75.4635 58.4146 72.8417C60.1881 70.2199 62.3473 68.0608 64.8919 66.3643C67.5137 64.6679 70.5596 63.8197 74.0296 63.8197C74.4151 63.8197 74.7621 63.8197 75.0706 63.8197C75.379 63.8197 75.6875 63.8582 75.9959 63.9353C77.7695 64.1667 79.1575 64.5908 80.1599 65.2077C81.2395 65.8246 82.1648 66.133 82.9359 66.133C83.6299 66.133 84.3625 65.5932 85.1336 64.5137C85.5191 63.5112 86.0204 62.7401 86.6372 62.2004C87.3312 61.5835 88.1024 61.275 88.9506 61.275C89.3361 61.275 89.606 61.3136 89.7602 61.3907C90.8398 61.5449 91.688 62.0847 92.3049 63.01C92.9218 63.9353 93.1531 64.9378 92.9989 66.0173C92.3049 69.4873 91.5724 73.3815 90.8012 77.6997C90.0301 81.9408 89.2976 86.0277 88.6036 89.9603C87.9867 93.893 87.4469 97.4016 86.9842 100.486C86.5987 103.493 86.4059 105.498 86.4059 106.501C86.4059 108.506 86.5601 110.048 86.8686 111.127C87.2541 112.207 87.6782 113.017 88.1409 113.556C88.6036 114.096 89.1048 114.443 89.6446 114.597C90.1844 114.674 90.6085 114.713 90.9169 114.713C92.8447 114.713 94.6568 113.942 96.3532 112.4C98.0497 110.78 99.5919 108.775 100.98 106.385C102.445 103.917 103.717 101.296 104.797 98.5197C105.954 95.6666 106.917 92.9677 107.689 90.423C107.997 89.5748 108.46 88.8808 109.077 88.341C109.771 87.8012 110.542 87.5313 111.39 87.5313C111.698 87.5313 112.084 87.6085 112.547 87.7627ZM79.8129 87.5313C80.7382 80.5913 80.3912 75.9647 78.7719 73.6513C78.4635 73.3429 78.0394 72.9959 77.4996 72.6103C76.9598 72.2248 76.1116 71.9549 74.9549 71.8007C73.2585 71.8007 71.8705 71.9549 70.7909 72.2634C69.7885 72.5718 68.6318 73.3429 67.3209 74.5767C65.5474 76.196 63.9666 78.5093 62.5786 81.5167C61.2677 84.4469 60.1881 87.9555 59.3399 92.0423C58.2604 97.7486 57.9519 102.298 58.4146 105.691C58.8773 109.007 59.6484 111.282 60.7279 112.515C61.2677 113.132 61.846 113.556 62.4629 113.788C63.0798 113.942 63.7738 114.019 64.5449 114.019C67.3209 113.865 69.5957 112.785 71.3693 110.78C73.2199 108.775 74.685 106.424 75.7646 103.725C76.9212 100.949 77.808 98.0956 78.4249 95.1653C79.0418 92.158 79.5045 89.6133 79.8129 87.5313ZM162.8 87.7627C163.88 88.1482 164.651 88.8037 165.113 89.729C165.653 90.6543 165.73 91.6568 165.345 92.7363C164.651 95.0497 163.687 97.2088 162.453 99.2137C161.296 101.219 159.908 102.992 158.289 104.534C156.67 105.999 154.781 107.195 152.621 108.12C150.539 108.968 148.226 109.392 145.681 109.392C144.602 109.392 143.715 109.469 143.021 109.624C142.327 109.778 141.71 110.048 141.17 110.433C140.631 110.819 140.091 111.32 139.551 111.937C139.088 112.554 138.51 113.325 137.816 114.25C134.115 119.494 129.103 122.116 122.779 122.116C119.926 121.961 117.42 121.152 115.261 119.687C114.413 119.147 113.642 118.877 112.948 118.877C112.177 118.877 111.598 119.108 111.213 119.571C110.904 120.034 110.712 120.573 110.634 121.19C110.095 124.66 109.632 127.783 109.246 130.559C108.861 133.412 108.437 136.188 107.974 138.887C107.589 141.586 107.203 144.324 106.817 147.1C106.432 149.953 105.969 153.114 105.429 156.584C105.275 157.587 104.813 158.396 104.041 159.013C103.27 159.63 102.422 159.939 101.497 159.939C101.188 159.939 100.996 159.9 100.918 159.823C99.8389 159.669 98.9907 159.168 98.3738 158.319C97.6798 157.471 97.4099 156.507 97.5641 155.428L111.097 65.5547C111.328 64.3209 111.83 63.4727 112.601 63.01C113.449 62.4702 114.451 62.2004 115.608 62.2004C116.379 62.3546 116.996 62.663 117.459 63.1257C117.999 63.5884 118.423 64.1281 118.731 64.745C119.271 65.7475 119.926 66.2487 120.697 66.2487C120.852 66.2487 121.16 66.1716 121.623 66.0173C123.396 65.0149 124.977 64.4366 126.365 64.2824C127.83 64.051 129.565 63.9353 131.57 63.9353C135.349 64.1667 138.433 65.786 140.823 68.7934C142.905 71.4151 144.293 74.8466 144.987 79.0877C145.759 83.3288 145.759 88.1868 144.987 93.6617C144.602 95.6666 144.525 97.4401 144.756 98.9823C144.987 100.525 145.797 101.296 147.185 101.296C147.339 101.296 147.455 101.296 147.532 101.296C147.609 101.219 147.725 101.18 147.879 101.18C149.19 100.949 150.385 100.447 151.465 99.6763C152.544 98.8281 153.508 97.8642 154.356 96.7847C155.205 95.7051 155.899 94.587 156.438 93.4303C157.055 92.2737 157.518 91.2327 157.826 90.3073C158.135 89.4591 158.598 88.8037 159.214 88.341C159.908 87.8012 160.68 87.5313 161.528 87.5313C161.759 87.5313 161.952 87.5699 162.106 87.647C162.337 87.647 162.569 87.6856 162.8 87.7627ZM133.768 105.575C134.23 104.496 134.423 103.609 134.346 102.915C134.269 102.144 134.153 101.488 133.999 100.949C133.459 98.7896 133.421 96.5919 133.883 94.3557C134.423 92.0423 135.349 90.1917 136.659 88.8037C137.122 88.4181 137.392 87.994 137.469 87.5313C137.623 86.9916 137.7 86.5289 137.7 86.1433C137.7 80.4371 136.659 76.3117 134.577 73.767C133.729 72.6103 132.534 71.9549 130.992 71.8007C128.524 71.8007 126.519 72.3019 124.977 73.3043C123.512 74.2297 122.201 75.8105 121.044 78.0467C119.579 80.7456 118.461 83.9071 117.69 87.5313C116.919 91.0785 116.302 94.4713 115.839 97.71C115.377 100.64 115.377 103.378 115.839 105.922C116.302 108.467 117.15 110.472 118.384 111.937C119.618 113.325 121.16 114.096 123.011 114.25C125.787 114.25 127.984 113.402 129.604 111.706C131.3 109.932 132.688 107.889 133.768 105.575ZM167.256 122.231C164.943 122.154 163.053 121.614 161.588 120.612C160.123 119.61 158.928 118.376 158.003 116.911C157.154 115.368 156.576 113.672 156.268 111.821C155.882 109.894 155.689 107.966 155.689 106.038C155.689 105.036 155.844 103.416 156.152 101.18C156.46 98.8667 156.846 96.2449 157.309 93.3147C157.771 90.3845 158.273 87.3386 158.812 84.177C159.352 81.0155 159.853 78.0467 160.316 75.2707C160.856 72.4947 161.318 70.1042 161.704 68.0993C162.09 66.0945 162.321 64.7836 162.398 64.1667C162.552 63.1642 162.976 62.3931 163.67 61.8533C164.441 61.2365 165.29 60.928 166.215 60.928C166.601 60.928 166.87 60.9666 167.025 61.0437C168.104 61.1979 168.952 61.7377 169.569 62.663C170.186 63.5883 170.379 64.5908 170.148 65.6704C169.454 69.1403 168.721 73.0345 167.95 77.3527C167.179 81.5938 166.446 85.6807 165.752 89.6133C165.135 93.546 164.596 97.016 164.133 100.023C163.747 103.031 163.555 105.036 163.555 106.038C163.555 108.043 163.709 109.624 164.017 110.78C164.326 111.86 164.673 112.67 165.058 113.209C165.521 113.749 165.984 114.096 166.446 114.25C166.986 114.327 167.41 114.366 167.719 114.366C170.032 114.366 172.114 113.479 173.965 111.706C175.815 109.855 177.435 107.657 178.823 105.113C180.288 102.568 181.483 99.9462 182.408 97.2473C183.411 94.4713 184.182 92.1966 184.722 90.423C184.953 89.5748 185.454 88.9193 186.225 88.4567C186.996 87.9169 187.806 87.647 188.654 87.647C189.117 87.647 189.464 87.6856 189.695 87.7627C190.775 88.1482 191.546 88.8037 192.009 89.729C192.548 90.5772 192.664 91.5411 192.356 92.6207C191.43 95.7051 190.312 98.9823 189.001 102.452C187.768 105.922 186.148 109.122 184.143 112.053C182.216 114.983 179.864 117.412 177.088 119.34C174.389 121.267 171.112 122.231 167.256 122.231ZM167.487 57.111C166.408 56.9568 165.56 56.4556 164.943 55.6074C164.326 54.682 164.094 53.6796 164.249 52.6L164.48 51.0964C164.711 49.9397 165.251 49.13 166.099 48.6674C166.948 48.1276 167.911 47.8577 168.991 47.8577C170.071 48.0119 170.919 48.5517 171.536 49.477C172.153 50.3252 172.384 51.2891 172.23 52.3687L171.998 53.8724C171.767 55.1832 171.227 56.07 170.379 56.5327C169.608 56.9182 168.644 57.111 167.487 57.111Z" fill="black"/>
<path d="M232.849 106.487C230.88 104.256 227.301 104.608 225.784 107.181L213.361 128.248C211.537 131.341 213.979 135.184 217.546 134.834L246.09 132.028C249.656 131.677 251.337 127.428 248.97 124.747L232.849 106.487Z" fill="#55A3F2"/>
<ellipse cx="276.181" cy="88.6119" rx="46.0588" ry="43.054" fill="#123295"/>
<ellipse cx="275.963" cy="115.52" rx="38.3824" ry="16.1452" fill="#55A4F2"/>
<mask id="mask0_1985_157057" style="mask-type:alpha" maskUnits="userSpaceOnUse" x="203" y="23" width="147" height="45">
<path d="M349 45.5577C349 57.9421 316.399 67.9817 276.184 67.9817C235.968 67.9817 203.367 57.9421 203.367 45.5577C203.367 33.1733 235.968 23.1338 276.184 23.1338C316.399 23.1338 349 33.1733 349 45.5577Z" fill="white"/>
</mask>
<g mask="url(#mask0_1985_157057)">
<ellipse cx="276.402" cy="72.2419" rx="47.5941" ry="30.7208" fill="white"/>
</g>
<path d="M276.181 137.149C304.293 137.149 327.723 115.761 327.723 88.6119C327.723 61.463 304.293 40.0748 276.181 40.0748C248.07 40.0748 224.639 61.463 224.639 88.6119C224.639 115.761 248.07 137.149 276.181 137.149Z" stroke="#8CC5FF" stroke-width="10.9664"/>
</svg>
